# xmcd
#
# Track frame offsets:
#	150
#	37663
#	75830
#	109214
#	144036
#	180101
#	219201
#	252350
#	285690
#
# Disc length: 4269 seconds
#
# Revision: 1
# Processed by: cddbd v1.5.1PL2 Copyright (c) Steve Scherf et al.
# Submitted via: audiograbber 1.80
#
DISCID=6210ab09
DTITLE=Twisted System - Core
DYEAR=1900
DGENRE=
TTITLE0=Stark Raver
TTITLE1=Razor
TTITLE2=Business Hippie
TTITLE3=Mad Minor
TTITLE4=Resistance
TTITLE5=The Forgotten V3.0
TTITLE6=Outer Dementia
TTITLE7=Daorithe
TTITLE8=Beautiful People (Tribute Remix)
EXTD=
EXTT0=
EXTT1=
EXTT2=
EXTT3=
EXTT4=
EXTT5=
EXTT6=
EXTT7=
EXTT8=
PLAYORDER=
